<svg xmlns="http://www.w3.org/2000/svg" xmlns:xlink="http://www.w3.org/1999/xlink" width="48" height="48"><defs><linearGradient id="b" x1="992.183" x2="1019.298" y1="516.081" y2="545.959" gradientTransform="translate(-1522.705 211.343) scale(1.53785)" gradientUnits="userSpaceOnUse" xlink:href="#a"/><linearGradient id="a"><stop offset="0" stop-color="#ff1679"/><stop offset="1" stop-color="#ff770b"/></linearGradient></defs><g transform="translate(0 -1004.362)"><rect width="48" height="48" y="1004.362" fill="url(#b)" rx="10.144" ry="10.144"/><path fill="#fff" style="line-height:normal;text-indent:0;text-align:start;text-decoration-line:none;text-decoration-style:solid;text-decoration-color:#000;text-transform:none;block-progression:tb;isolation:auto;mix-blend-mode:normal" d="M21.918 1013.364c-.36 0-.723.022-1.087.055a13.003 13.003 0 0 0-11.622 10.64 13.004 13.004 0 0 0 7.172 14.028 12.999 12.999 0 0 0 15.285-3.037c.213-.056.424-.12.633-.195l3.903 6.76a1.51 1.51 0 0 0 2.05.548c.713-.41.96-1.336.55-2.048l-3.923-6.791a.5.5 0 0 0-.015-.025c2.51-2.326 3.184-6.159 1.402-9.244a7.465 7.465 0 0 0-2.129-2.344 13.003 13.003 0 0 0-12.219-8.346zm.05 1.002c.08 0 .16.01.241.01.685.064 1.352.49 2.02 1.31.782.96 1.477 2.466 1.98 4.349a26.556 26.556 0 0 1-8.412-.004c.207-.772.436-1.505.707-2.145.784-1.846 1.818-3.044 2.82-3.398.218-.077.43-.112.643-.12zm2.69.301a12 12 0 0 1 6.454 3.897c-1.09.538-2.425.974-3.918 1.283-.528-2.015-1.268-3.664-2.19-4.795a6.024 6.024 0 0 0-.345-.385zm-5.327.01c-.68.712-1.263 1.673-1.749 2.816-.301.712-.551 1.516-.773 2.36-1.493-.307-2.821-.75-3.914-1.29a11.974 11.974 0 0 1 6.436-3.886zm12.412 4.688c.346.482.656.996.931 1.535a7.51 7.51 0 0 0-3.103-.596c-.061 0-.123.013-.184.016.86-.27 1.65-.589 2.356-.955zm-19.48 0c1.214.629 2.675 1.124 4.296 1.46a26.085 26.085 0 0 0-.518 4.042c-.026.503-.024.999-.025 1.496h-6.01c0-.706.06-1.418.188-2.131a11.97 11.97 0 0 1 2.068-4.867zm5.284 1.636c1.47.241 3.035.37 4.639.36a27.777 27.777 0 0 0 4.264-.35l.017.07c-.149.073-.301.139-.447.223a7.478 7.478 0 0 0-3.602 5.058H17.02c-.001-.48-.006-.958.02-1.443.072-1.394.249-2.713.507-3.918zm12.05.3a6.495 6.495 0 0 1 5.802 3.25 6.493 6.493 0 0 1-2.379 8.878 6.493 6.493 0 0 1-8.879-2.379 6.495 6.495 0 0 1 2.379-8.88 6.467 6.467 0 0 1 3.076-.87zm.276 1.497c-.241-.01-.484.01-.726.037a5.007 5.007 0 0 0-1.877.657c-2.383 1.376-3.217 4.422-1.84 6.808 1.378 2.387 4.452 3.216 6.84 1.838 2.386-1.378 3.218-4.45 1.84-6.838a5.02 5.02 0 0 0-4.237-2.502zm-.023 1a4.02 4.02 0 0 1 3.393 2.002c.105.183.18.372.254.563h-7.442a3.978 3.978 0 0 1 1.715-2.006c.49-.283.999-.467 1.5-.53.193-.024.387-.034.58-.029zm-19.8 3.565h5.976c.061 1.957.307 3.833.738 5.496-1.449.288-2.777.707-3.933 1.234a12.002 12.002 0 0 1-2.782-6.73zm6.988 0h5.25a7.454 7.454 0 0 0 .986 4.187c.182.316.39.606.61.885a28.089 28.089 0 0 0-6.08.244c-.425-1.589-.69-3.408-.766-5.316zm8.76 0h7.952a4.01 4.01 0 0 1-1.98 3.91 4.007 4.007 0 0 1-5.473-1.473 3.945 3.945 0 0 1-.5-2.437zm-4.17 6.004c1.098-.016 2.21.038 3.306.156.265.223.542.429.832.611-.726 1.992-1.681 3.32-2.61 3.881a2.459 2.459 0 0 1-.89.338c-.196 0-.393.01-.59 0-.46-.078-.926-.333-1.422-.795-.852-.795-1.587-2.187-2.15-3.908a26.888 26.888 0 0 1 3.523-.285zm-4.565.464c.56 1.753 1.321 3.226 2.283 4.225a11.994 11.994 0 0 1-2.533-.873 11.981 11.981 0 0 1-3.272-2.313c1.032-.435 2.222-.787 3.522-1.039zm17.016.1 3.855 6.68a.489.489 0 0 1-.182.684.489.489 0 0 1-.683-.184l-3.848-6.664c.1-.052.2-.096.299-.152.194-.112.378-.237.559-.364zm-7.428.68a7.55 7.55 0 0 0 3.353.682 11.97 11.97 0 0 1-5.334 2.762c.777-.81 1.437-1.985 1.98-3.444z" color="#000" font-family="sans-serif" font-weight="400" overflow="visible"/></g></svg>