<svg xmlns="http://www.w3.org/2000/svg" viewBox="0 0 16 16"><path fill="#231f20" d="M3.74.5c-.967 0-1.754.787-1.754 1.754v10.992c0 .967.787 1.754 1.754 1.754h7.992c.967 0 1.754-.787 1.754-1.754V4.771c0-.007-.006-.012-.007-.019a.246.246 0 0 0-.065-.158l-4-4a.246.246 0 0 0-.15-.067C9.239.52 9.219.5 9.194.5H3.74zm0 .5h5.246v2.281c0 .96.78 1.74 1.739 1.74h2.261v8.225c0 .691-.563 1.254-1.254 1.254H3.74a1.256 1.256 0 0 1-1.254-1.254V2.254C2.486 1.563 3.05 1 3.74 1Zm5.744.393c.771.766 2.316 2.3 3.147 3.128h-1.906c-.683 0-1.24-.557-1.24-1.24V1.393z"/></svg>