<svg width="1031" height="325" viewBox="0 0 1031 325" fill="none" xmlns="http://www.w3.org/2000/svg">
<path d="M11 90C11 68.4758 11.0234 53.4393 12.5494 42.0885C14.033 31.0541 16.7527 25.164 20.9584 20.9584C25.164 16.7527 31.0541 14.033 42.0885 12.5494C53.4393 11.0234 68.4758 11 90 11H210C231.524 11 246.561 11.0234 257.911 12.5494C268.946 14.033 274.836 16.7527 279.042 20.9584C283.247 25.164 285.967 31.0541 287.451 42.0885C288.977 53.4393 289 68.4758 289 90V210C289 231.524 288.977 246.561 287.451 257.911C285.967 268.946 283.247 274.836 279.042 279.042C274.836 283.247 268.946 285.967 257.911 287.451C246.561 288.977 231.524 289 210 289H90C68.4758 289 53.4393 288.977 42.0885 287.451C31.0541 285.967 25.164 283.247 20.9584 279.042C16.7527 274.836 14.033 268.946 12.5494 257.911C11.0234 246.561 11 231.524 11 210V90Z" stroke="#234361" stroke-width="22"/>
<rect x="33" y="123.785" width="40" height="113" rx="10" fill="#234361"/>
<rect x="266" y="244" width="20" height="232" rx="10" transform="rotate(90 266 244)" fill="#234361"/>
<rect x="80" y="56.7852" width="40" height="180" rx="10" fill="#234361"/>
<rect x="127" y="92.7852" width="40" height="144" rx="10" fill="#234361"/>
<rect x="167" y="178.914" width="40" height="64" rx="10" transform="rotate(-19.1581 167 178.914)" fill="#234361"/>
<rect x="226" y="151.785" width="40" height="85" rx="10" fill="#234361"/>
<path d="M505.7 256L460.1 187.9L438.5 209.2V256H398.3V37H438.5V169.9L501.5 99.1H544.4L485.9 165.7L548.6 256H505.7Z" fill="#234361"/>
<path d="M568.885 286.6C572.285 287.6 575.585 288.3 578.785 288.7C581.985 289.3 584.685 289.6 586.885 289.6C589.485 289.6 591.885 289.1 594.085 288.1C596.285 287.1 598.285 285.3 600.085 282.7C601.885 280.3 603.685 276.9 605.485 272.5C607.285 268.1 609.185 262.6 611.185 256L549.085 98.8H590.485L633.085 221.2L670.885 98.8H708.685L642.685 287.2C638.885 298.2 632.385 307.2 623.185 314.2C613.985 321.2 602.585 324.7 588.985 324.7C585.785 324.7 582.485 324.4 579.085 323.8C575.885 323.4 572.485 322.6 568.885 321.4V286.6Z" fill="#234361"/>
<path d="M786.411 259C773.211 259 760.311 256.9 747.711 252.7C735.111 248.5 724.311 242.5 715.311 234.7L730.311 209.5C739.911 216.3 749.211 221.5 758.211 225.1C767.411 228.5 776.511 230.2 785.511 230.2C793.511 230.2 799.811 228.7 804.411 225.7C809.011 222.7 811.311 218.4 811.311 212.8C811.311 207.2 808.611 203.1 803.211 200.5C797.811 197.9 789.011 194.9 776.811 191.5C766.611 188.7 757.911 186 750.711 183.4C743.511 180.8 737.711 177.9 733.311 174.7C728.911 171.3 725.711 167.5 723.711 163.3C721.711 158.9 720.711 153.7 720.711 147.7C720.711 139.7 722.211 132.5 725.211 126.1C728.411 119.7 732.811 114.3 738.411 109.9C744.011 105.3 750.511 101.8 757.911 99.4C765.511 97 773.711 95.8 782.511 95.8C794.311 95.8 805.311 97.5 815.511 100.9C825.911 104.3 835.411 109.8 844.011 117.4L827.811 141.7C819.811 135.7 812.011 131.3 804.411 128.5C797.011 125.7 789.611 124.3 782.211 124.3C775.411 124.3 769.711 125.7 765.111 128.5C760.511 131.3 758.211 135.8 758.211 142C758.211 144.8 758.711 147.1 759.711 148.9C760.911 150.7 762.711 152.3 765.111 153.7C767.511 155.1 770.611 156.5 774.411 157.9C778.411 159.1 783.311 160.4 789.111 161.8C799.911 164.6 809.111 167.4 816.711 170.2C824.511 173 830.811 176.2 835.611 179.8C840.611 183.4 844.211 187.6 846.411 192.4C848.811 197 850.011 202.6 850.011 209.2C850.011 224.6 844.311 236.8 832.911 245.8C821.511 254.6 806.011 259 786.411 259Z" fill="#234361"/>
<path d="M948.732 259C935.932 259 924.432 256.8 914.232 252.4C904.032 248 895.332 242.1 888.132 234.7C881.132 227.1 875.732 218.4 871.932 208.6C868.132 198.8 866.232 188.5 866.232 177.7C866.232 166.7 868.132 156.3 871.932 146.5C875.732 136.7 881.132 128.1 888.132 120.7C895.332 113.1 904.032 107.1 914.232 102.7C924.432 98.3 935.932 96.1 948.732 96.1C961.532 96.1 972.932 98.3 982.932 102.7C993.132 107.1 1001.73 113.1 1008.73 120.7C1015.93 128.1 1021.43 136.7 1025.23 146.5C1029.03 156.3 1030.93 166.7 1030.93 177.7C1030.93 188.5 1029.03 198.8 1025.23 208.6C1021.43 218.4 1016.03 227.1 1009.03 234.7C1002.03 242.1 993.432 248 983.232 252.4C973.032 256.8 961.532 259 948.732 259ZM907.632 177.7C907.632 184.7 908.632 191.1 910.632 196.9C912.832 202.5 915.732 207.4 919.332 211.6C923.132 215.8 927.532 219.1 932.532 221.5C937.532 223.7 942.932 224.8 948.732 224.8C954.532 224.8 959.932 223.7 964.932 221.5C969.932 219.1 974.232 215.8 977.832 211.6C981.632 207.4 984.532 202.4 986.532 196.6C988.732 190.8 989.832 184.4 989.832 177.4C989.832 170.6 988.732 164.3 986.532 158.5C984.532 152.7 981.632 147.7 977.832 143.5C974.232 139.3 969.932 136.1 964.932 133.9C959.932 131.5 954.532 130.3 948.732 130.3C942.932 130.3 937.532 131.5 932.532 133.9C927.532 136.3 923.132 139.6 919.332 143.8C915.732 148 912.832 153 910.632 158.8C908.632 164.6 907.632 170.9 907.632 177.7Z" fill="#234361"/>
</svg>
