<svg width="300" height="300" viewBox="0 0 300 300" fill="none" xmlns="http://www.w3.org/2000/svg">
<path d="M11 90C11 68.4758 11.0234 53.4393 12.5494 42.0885C14.033 31.0541 16.7527 25.164 20.9584 20.9584C25.164 16.7527 31.0541 14.033 42.0885 12.5494C53.4393 11.0234 68.4758 11 90 11H210C231.524 11 246.561 11.0234 257.911 12.5494C268.946 14.033 274.836 16.7527 279.042 20.9584C283.247 25.164 285.967 31.0541 287.451 42.0885C288.977 53.4393 289 68.4758 289 90V210C289 231.524 288.977 246.561 287.451 257.911C285.967 268.946 283.247 274.836 279.042 279.042C274.836 283.247 268.946 285.967 257.911 287.451C246.561 288.977 231.524 289 210 289H90C68.4758 289 53.4393 288.977 42.0885 287.451C31.0541 285.967 25.164 283.247 20.9584 279.042C16.7527 274.836 14.033 268.946 12.5494 257.911C11.0234 246.561 11 231.524 11 210V90Z" stroke="white" stroke-width="22"/>
<rect x="33" y="123.785" width="40" height="113" rx="10" fill="white"/>
<rect x="266" y="244" width="20" height="232" rx="10" transform="rotate(90 266 244)" fill="white"/>
<rect x="80" y="56.7852" width="40" height="180" rx="10" fill="white"/>
<rect x="127" y="92.7852" width="40" height="144" rx="10" fill="white"/>
<rect x="167" y="178.914" width="40" height="64" rx="10" transform="rotate(-19.1581 167 178.914)" fill="white"/>
<rect x="226" y="151.785" width="40" height="85" rx="10" fill="white"/>
</svg>
