<svg xmlns="http://www.w3.org/2000/svg" width="55" height="55" viewBox="0 0 55 55">
  <g transform="translate(-99 -445)">
    <g transform="translate(99 445)" fill="none" stroke-miterlimit="10">
      <path d="M48.889,0H6.111A6.109,6.109,0,0,0,0,6.111V48.889A6.109,6.109,0,0,0,6.111,55H48.889A6.109,6.109,0,0,0,55,48.889V6.111A6.109,6.109,0,0,0,48.889,0Z" stroke="none"/>
      <path d="M 6.111114501953125 3 C 4.395641326904297 3 3 4.395641326904297 3 6.111114501953125 L 3 48.88888549804688 C 3 50.6043586730957 4.395641326904297 52 6.111114501953125 52 L 48.88888549804688 52 C 50.6043586730957 52 52 50.6043586730957 52 48.88888549804688 L 52 6.111114501953125 C 52 4.395641326904297 50.6043586730957 3 48.88888549804688 3 L 6.111114501953125 3 M 6.111114501953125 0 L 48.88888549804688 0 C 52.28055572509766 0 55 2.75 55 6.111114501953125 L 55 48.88888549804688 C 55 52.25 52.28055572509766 55 48.88888549804688 55 L 6.111114501953125 55 C 2.719444274902344 55 0 52.25 0 48.88888549804688 L 0 6.111114501953125 C 0 2.75 2.719444274902344 0 6.111114501953125 0 Z" stroke="none" fill="currentColor"/>
    </g>
    <g transform="translate(107 452)" fill="currentColor" stroke-linejoin="round" stroke-miterlimit="10">
      <path d="M 4.642859935760498 10.02926731109619 L 4.466080188751221 9.852497100830078 L -0.1767800003290176 5.20963716506958 L -0.353549987077713 5.032857418060303 L -0.1767800003290176 4.856077194213867 L 1.13250994682312 3.546787261962891 L 1.309039950370789 3.370257139205933 L 1.485820055007935 3.546547174453735 L 4.642608642578125 6.6945481300354 L 11.51393032073975 -0.1767827570438385 L 11.69134044647217 -0.3541827499866486 L 11.86810970306396 -0.1761527508497238 L 13.17739963531494 1.142417192459106 L 13.35293006896973 1.31918728351593 L 13.17677974700928 1.495347261428833 L 4.819640159606934 9.852497100830078 L 4.642859935760498 10.02926731109619 Z" stroke="none"/>
      <path d="M 4.642859935760498 9.675717353820801 L 13 1.318567276000977 L 11.69071006774902 -2.753601165750297e-06 L 4.642859935760498 7.047857284545898 L 1.309290051460266 3.723567247390747 L -8.881784197001252e-16 5.032857418060303 L 4.642859935760498 9.675717353820801 M 4.642859935760498 10.1757173538208 C 4.510250091552734 10.1757173538208 4.38306999206543 10.12303733825684 4.289309978485107 10.02926731109619 L -0.353549987077713 5.386407375335693 C -0.5488200187683105 5.191147327423096 -0.5488200187683105 4.874567031860352 -0.353549987077713 4.679307460784912 L 0.9557399749755859 3.370017290115356 C 1.15081000328064 3.174947500228882 1.467009902000427 3.174727201461792 1.662350058555603 3.36951732635498 L 4.642372608184814 6.341244220733643 L 11.33716011047363 -0.3535527586936951 C 11.43113994598389 -0.4475426375865936 11.55809116363525 -0.5002381205558777 11.69159030914307 -0.5000027418136597 C 11.8245096206665 -0.4997627437114716 11.95186042785645 -0.446622759103775 12.04551029205322 -0.352302759885788 L 13.3548002243042 0.9662672281265259 C 13.54889011383057 1.1617271900177 13.54833030700684 1.477347254753113 13.35354995727539 1.672117233276367 L 4.996409893035889 10.02926731109619 C 4.902649879455566 10.12303733825684 4.775469779968262 10.1757173538208 4.642859935760498 10.1757173538208 Z" stroke="none" fill="currentColor"/>
    </g>
    <g transform="translate(125 456)" fill="currentColor" stroke="currentColor" stroke-linecap="round" stroke-linejoin="round" stroke-width="0.7">
      <rect width="22" height="2" stroke="none"/>
      <rect x="-0.35" y="-0.35" width="22.7" height="2.7" fill="none"/>
    </g>
    <g transform="translate(107 468)" fill="currentColor" stroke-linejoin="round" stroke-miterlimit="10">
      <path d="M 4.642859935760498 10.02926731109619 L 4.466080188751221 9.852497100830078 L -0.1767800003290176 5.20963716506958 L -0.353549987077713 5.032857418060303 L -0.1767800003290176 4.856077194213867 L 1.13250994682312 3.546787261962891 L 1.309039950370789 3.370257139205933 L 1.485820055007935 3.546547174453735 L 4.642608642578125 6.6945481300354 L 11.51393032073975 -0.1767827570438385 L 11.69134044647217 -0.3541827499866486 L 11.86810970306396 -0.1761527508497238 L 13.17739963531494 1.142417192459106 L 13.35293006896973 1.31918728351593 L 13.17677974700928 1.495347261428833 L 4.819640159606934 9.852497100830078 L 4.642859935760498 10.02926731109619 Z" stroke="none"/>
      <path d="M 4.642859935760498 9.675717353820801 L 13 1.318567276000977 L 11.69071006774902 -2.753601165750297e-06 L 4.642859935760498 7.047857284545898 L 1.309290051460266 3.723567247390747 L -8.881784197001252e-16 5.032857418060303 L 4.642859935760498 9.675717353820801 M 4.642859935760498 10.1757173538208 C 4.510250091552734 10.1757173538208 4.38306999206543 10.12303733825684 4.289309978485107 10.02926731109619 L -0.353549987077713 5.386407375335693 C -0.5488200187683105 5.191147327423096 -0.5488200187683105 4.874567031860352 -0.353549987077713 4.679307460784912 L 0.9557399749755859 3.370017290115356 C 1.15081000328064 3.174947500228882 1.467009902000427 3.174727201461792 1.662350058555603 3.36951732635498 L 4.642372608184814 6.341244220733643 L 11.33716011047363 -0.3535527586936951 C 11.43113994598389 -0.4475426375865936 11.55809116363525 -0.5002381205558777 11.69159030914307 -0.5000027418136597 C 11.8245096206665 -0.4997627437114716 11.95186042785645 -0.446622759103775 12.04551029205322 -0.352302759885788 L 13.3548002243042 0.9662672281265259 C 13.54889011383057 1.1617271900177 13.54833030700684 1.477347254753113 13.35354995727539 1.672117233276367 L 4.996409893035889 10.02926731109619 C 4.902649879455566 10.12303733825684 4.775469779968262 10.1757173538208 4.642859935760498 10.1757173538208 Z" stroke="none" fill="currentColor"/>
    </g>
    <g transform="translate(125 471)" fill="currentColor" stroke="currentColor" stroke-linecap="round" stroke-linejoin="round" stroke-width="0.7">
      <rect width="22" height="2" stroke="none"/>
      <rect x="-0.35" y="-0.35" width="22.7" height="2.7" fill="none"/>
    </g>
    <g transform="translate(107 484)" fill="currentColor" stroke-linejoin="round" stroke-miterlimit="10">
      <path d="M 4.642859935760498 10.02926731109619 L 4.466080188751221 9.852497100830078 L -0.1767800003290176 5.20963716506958 L -0.353549987077713 5.032857418060303 L -0.1767800003290176 4.856077194213867 L 1.13250994682312 3.546787261962891 L 1.309039950370789 3.370257139205933 L 1.485820055007935 3.546547174453735 L 4.642608642578125 6.6945481300354 L 11.51393032073975 -0.1767827570438385 L 11.69134044647217 -0.3541827499866486 L 11.86810970306396 -0.1761527508497238 L 13.17739963531494 1.142417192459106 L 13.35293006896973 1.31918728351593 L 13.17677974700928 1.495347261428833 L 4.819640159606934 9.852497100830078 L 4.642859935760498 10.02926731109619 Z" stroke="none"/>
      <path d="M 4.642859935760498 9.675717353820801 L 13 1.318567276000977 L 11.69071006774902 -2.753601165750297e-06 L 4.642859935760498 7.047857284545898 L 1.309290051460266 3.723567247390747 L -8.881784197001252e-16 5.032857418060303 L 4.642859935760498 9.675717353820801 M 4.642859935760498 10.1757173538208 C 4.510250091552734 10.1757173538208 4.38306999206543 10.12303733825684 4.289309978485107 10.02926731109619 L -0.353549987077713 5.386407375335693 C -0.5488200187683105 5.191147327423096 -0.5488200187683105 4.874567031860352 -0.353549987077713 4.679307460784912 L 0.9557399749755859 3.370017290115356 C 1.15081000328064 3.174947500228882 1.467009902000427 3.174727201461792 1.662350058555603 3.36951732635498 L 4.642372608184814 6.341244220733643 L 11.33716011047363 -0.3535527586936951 C 11.43113994598389 -0.4475426375865936 11.55809116363525 -0.5002381205558777 11.69159030914307 -0.5000027418136597 C 11.8245096206665 -0.4997627437114716 11.95186042785645 -0.446622759103775 12.04551029205322 -0.352302759885788 L 13.3548002243042 0.9662672281265259 C 13.54889011383057 1.1617271900177 13.54833030700684 1.477347254753113 13.35354995727539 1.672117233276367 L 4.996409893035889 10.02926731109619 C 4.902649879455566 10.12303733825684 4.775469779968262 10.1757173538208 4.642859935760498 10.1757173538208 Z" stroke="none" fill="currentColor"/>
    </g>
    <g transform="translate(125 487)" fill="currentColor" stroke="currentColor" stroke-linecap="round" stroke-linejoin="round" stroke-width="0.7">
      <rect width="22" height="2" stroke="none"/>
      <rect x="-0.35" y="-0.35" width="22.7" height="2.7" fill="none"/>
    </g>
  </g>
</svg>